<svg width="800" height="800" viewBox="0 0 800 800" fill="none" xmlns="http://www.w3.org/2000/svg">
<g filter="url(#filter0_d_193_86)">
<path d="M434.381 179.419L243 38L300.866 325.636V132.844L407.847 213.574L434.381 179.419Z" fill="url(#paint0_linear_193_86)"/>
<path d="M311.875 532.259V156.837L347.723 185.911V496.411L311.875 532.259Z" fill="url(#paint1_linear_193_86)"/>
<path d="M557.452 132.844H486.601L359.861 298.82V325.636H412.948V453.505C412.948 489.636 351.346 527.138 311.875 574.318C408.72 525.111 458.531 497.789 472.77 453.505V278.779H421.679L557.452 132.844Z" fill="url(#paint2_linear_193_86)"/>
<path d="M490.271 221.477L459.221 255.35L495.634 278.779L494.787 386.607L543.338 268.899L490.271 221.477Z" fill="url(#paint3_linear_193_86)"/>
<path d="M399.661 223.453L359.861 194.097V278.779L399.661 223.453Z" fill="url(#paint4_linear_193_86)"/>
</g>
<g filter="url(#filter1_d_193_86)">
<path d="M611.194 337.485L558.571 283.198L511 397.211L538.394 372.009L548.394 364.509L558.571 357.009L566.394 352.509L574.394 348.009L585.52 343.535L595.894 340.509L611.194 337.485Z" fill="black"/>
<path d="M611.194 337.485L558.571 283.198L511 397.211L538.394 372.009L548.394 364.509L558.571 357.009L566.394 352.509L574.394 348.009L585.52 343.535L595.894 340.509L611.194 337.485Z" stroke="#13CE70" stroke-width="3"/>
</g>
<g filter="url(#filter2_d_193_86)">
<mask id="path-3-outside-1_193_86" maskUnits="userSpaceOnUse" x="167" y="672" width="458" height="32" fill="black">
<rect fill="white" x="167" y="672" width="458" height="32"/>
<path d="M210 691H174V697H210V703H168V673H210V679H174V685H210V691ZM278.988 703H236.988V697H272.988V691H236.988V673H278.988V679H242.988V685H278.988V703ZM311.977 703H305.977V673H347.977V691H311.977V703ZM311.977 685H341.977V679H311.977V685ZM374.965 673H416.965V703H374.965V673ZM380.965 697H410.965V679H380.965V697ZM449.953 703H443.953V673H485.953V691H479.953L485.953 703H479.233L473.233 691H449.953V703ZM449.953 685H479.953V679H449.953V685ZM512.941 673H554.941V679H536.941V703H530.941V679H512.941V673ZM623.93 703H581.93V697H617.93V691H581.93V673H623.93V679H587.93V685H623.93V703Z"/>
</mask>
<path d="M210 691H174V697H210V703H168V673H210V679H174V685H210V691ZM278.988 703H236.988V697H272.988V691H236.988V673H278.988V679H242.988V685H278.988V703ZM311.977 703H305.977V673H347.977V691H311.977V703ZM311.977 685H341.977V679H311.977V685ZM374.965 673H416.965V703H374.965V673ZM380.965 697H410.965V679H380.965V697ZM449.953 703H443.953V673H485.953V691H479.953L485.953 703H479.233L473.233 691H449.953V703ZM449.953 685H479.953V679H449.953V685ZM512.941 673H554.941V679H536.941V703H530.941V679H512.941V673ZM623.93 703H581.93V697H617.93V691H581.93V673H623.93V679H587.93V685H623.93V703Z" fill="#13CE70"/>
<path d="M210 691V691.565H210.565V691H210ZM174 691V690.435H173.435V691H174ZM174 697H173.435V697.565H174V697ZM210 697H210.565V696.435H210V697ZM210 703V703.565H210.565V703H210ZM168 703H167.435V703.565H168V703ZM168 673V672.435H167.435V673H168ZM210 673H210.565V672.435H210V673ZM210 679V679.565H210.565V679H210ZM174 679V678.435H173.435V679H174ZM174 685H173.435V685.565H174V685ZM210 685H210.565V684.435H210V685ZM210 691V690.435H174V691V691.565H210V691ZM174 691H173.435V697H174H174.565V691H174ZM174 697V697.565H210V697V696.435H174V697ZM210 697H209.435V703H210H210.565V697H210ZM210 703V702.435H168V703V703.565H210V703ZM168 703H168.565V673H168H167.435V703H168ZM168 673V673.565H210V673V672.435H168V673ZM210 673H209.435V679H210H210.565V673H210ZM210 679V678.435H174V679V679.565H210V679ZM174 679H173.435V685H174H174.565V679H174ZM174 685V685.565H210V685V684.435H174V685ZM210 685H209.435V691H210H210.565V685H210ZM278.988 703V703.565H279.553V703H278.988ZM236.988 703H236.424V703.565H236.988V703ZM236.988 697V696.435H236.424V697H236.988ZM272.988 697V697.565H273.553V697H272.988ZM272.988 691H273.553V690.435H272.988V691ZM236.988 691H236.424V691.565H236.988V691ZM236.988 673V672.435H236.424V673H236.988ZM278.988 673H279.553V672.435H278.988V673ZM278.988 679V679.565H279.553V679H278.988ZM242.988 679V678.435H242.424V679H242.988ZM242.988 685H242.424V685.565H242.988V685ZM278.988 685H279.553V684.435H278.988V685ZM278.988 703V702.435H236.988V703V703.565H278.988V703ZM236.988 703H237.553V697H236.988H236.424V703H236.988ZM236.988 697V697.565H272.988V697V696.435H236.988V697ZM272.988 697H273.553V691H272.988H272.424V697H272.988ZM272.988 691V690.435H236.988V691V691.565H272.988V691ZM236.988 691H237.553V673H236.988H236.424V691H236.988ZM236.988 673V673.565H278.988V673V672.435H236.988V673ZM278.988 673H278.424V679H278.988H279.553V673H278.988ZM278.988 679V678.435H242.988V679V679.565H278.988V679ZM242.988 679H242.424V685H242.988H243.553V679H242.988ZM242.988 685V685.565H278.988V685V684.435H242.988V685ZM278.988 685H278.424V703H278.988H279.553V685H278.988ZM311.977 703V703.565H312.541V703H311.977ZM305.977 703H305.412V703.565H305.977V703ZM305.977 673V672.435H305.412V673H305.977ZM347.977 673H348.541V672.435H347.977V673ZM347.977 691V691.565H348.541V691H347.977ZM311.977 691V690.435H311.412V691H311.977ZM311.977 685H311.412V685.565H311.977V685ZM341.977 685V685.565H342.541V685H341.977ZM341.977 679H342.541V678.435H341.977V679ZM311.977 679V678.435H311.412V679H311.977ZM311.977 703V702.435H305.977V703V703.565H311.977V703ZM305.977 703H306.541V673H305.977H305.412V703H305.977ZM305.977 673V673.565H347.977V673V672.435H305.977V673ZM347.977 673H347.412V691H347.977H348.541V673H347.977ZM347.977 691V690.435H311.977V691V691.565H347.977V691ZM311.977 691H311.412V703H311.977H312.541V691H311.977ZM311.977 685V685.565H341.977V685V684.435H311.977V685ZM341.977 685H342.541V679H341.977H341.412V685H341.977ZM341.977 679V678.435H311.977V679V679.565H341.977V679ZM311.977 679H311.412V685H311.977H312.541V679H311.977ZM374.965 673V672.435H374.4V673H374.965ZM416.965 673H417.529V672.435H416.965V673ZM416.965 703V703.565H417.529V703H416.965ZM374.965 703H374.4V703.565H374.965V703ZM380.965 697H380.4V697.565H380.965V697ZM410.965 697V697.565H411.529V697H410.965ZM410.965 679H411.529V678.435H410.965V679ZM380.965 679V678.435H380.4V679H380.965ZM374.965 673V673.565H416.965V673V672.435H374.965V673ZM416.965 673H416.4V703H416.965H417.529V673H416.965ZM416.965 703V702.435H374.965V703V703.565H416.965V703ZM374.965 703H375.529V673H374.965H374.4V703H374.965ZM380.965 697V697.565H410.965V697V696.435H380.965V697ZM410.965 697H411.529V679H410.965H410.4V697H410.965ZM410.965 679V678.435H380.965V679V679.565H410.965V679ZM380.965 679H380.4V697H380.965H381.529V679H380.965ZM449.953 703V703.565H450.518V703H449.953ZM443.953 703H443.389V703.565H443.953V703ZM443.953 673V672.435H443.389V673H443.953ZM485.953 673H486.518V672.435H485.953V673ZM485.953 691V691.565H486.518V691H485.953ZM479.953 691V690.435H479.04L479.448 691.252L479.953 691ZM485.953 703V703.565H486.867L486.458 702.748L485.953 703ZM479.233 703L478.728 703.252L478.884 703.565H479.233V703ZM473.233 691L473.738 690.748L473.582 690.435H473.233V691ZM449.953 691V690.435H449.389V691H449.953ZM449.953 685H449.389V685.565H449.953V685ZM479.953 685V685.565H480.518V685H479.953ZM479.953 679H480.518V678.435H479.953V679ZM449.953 679V678.435H449.389V679H449.953ZM449.953 703V702.435H443.953V703V703.565H449.953V703ZM443.953 703H444.518V673H443.953H443.389V703H443.953ZM443.953 673V673.565H485.953V673V672.435H443.953V673ZM485.953 673H485.389V691H485.953H486.518V673H485.953ZM485.953 691V690.435H479.953V691V691.565H485.953V691ZM479.953 691L479.448 691.252L485.448 703.252L485.953 703L486.458 702.748L480.458 690.748L479.953 691ZM485.953 703V702.435H479.233V703V703.565H485.953V703ZM479.233 703L479.738 702.748L473.738 690.748L473.233 691L472.728 691.252L478.728 703.252L479.233 703ZM473.233 691V690.435H449.953V691V691.565H473.233V691ZM449.953 691H449.389V703H449.953H450.518V691H449.953ZM449.953 685V685.565H479.953V685V684.435H449.953V685ZM479.953 685H480.518V679H479.953H479.389V685H479.953ZM479.953 679V678.435H449.953V679V679.565H479.953V679ZM449.953 679H449.389V685H449.953H450.518V679H449.953ZM512.941 673V672.435H512.377V673H512.941ZM554.941 673H555.506V672.435H554.941V673ZM554.941 679V679.565H555.506V679H554.941ZM536.941 679V678.435H536.377V679H536.941ZM536.941 703V703.565H537.506V703H536.941ZM530.941 703H530.377V703.565H530.941V703ZM530.941 679H531.506V678.435H530.941V679ZM512.941 679H512.377V679.565H512.941V679ZM512.941 673V673.565H554.941V673V672.435H512.941V673ZM554.941 673H554.377V679H554.941H555.506V673H554.941ZM554.941 679V678.435H536.941V679V679.565H554.941V679ZM536.941 679H536.377V703H536.941H537.506V679H536.941ZM536.941 703V702.435H530.941V703V703.565H536.941V703ZM530.941 703H531.506V679H530.941H530.377V703H530.941ZM530.941 679V678.435H512.941V679V679.565H530.941V679ZM512.941 679H513.506V673H512.941H512.377V679H512.941ZM623.93 703V703.565H624.494V703H623.93ZM581.93 703H581.365V703.565H581.93V703ZM581.93 697V696.435H581.365V697H581.93ZM617.93 697V697.565H618.494V697H617.93ZM617.93 691H618.494V690.435H617.93V691ZM581.93 691H581.365V691.565H581.93V691ZM581.93 673V672.435H581.365V673H581.93ZM623.93 673H624.494V672.435H623.93V673ZM623.93 679V679.565H624.494V679H623.93ZM587.93 679V678.435H587.365V679H587.93ZM587.93 685H587.365V685.565H587.93V685ZM623.93 685H624.494V684.435H623.93V685ZM623.93 703V702.435H581.93V703V703.565H623.93V703ZM581.93 703H582.494V697H581.93H581.365V703H581.93ZM581.93 697V697.565H617.93V697V696.435H581.93V697ZM617.93 697H618.494V691H617.93H617.365V697H617.93ZM617.93 691V690.435H581.93V691V691.565H617.93V691ZM581.93 691H582.494V673H581.93H581.365V691H581.93ZM581.93 673V673.565H623.93V673V672.435H581.93V673ZM623.93 673H623.365V679H623.93H624.494V673H623.93ZM623.93 679V678.435H587.93V679V679.565H623.93V679ZM587.93 679H587.365V685H587.93H588.494V679H587.93ZM587.93 685V685.565H623.93V685V684.435H587.93V685ZM623.93 685H623.365V703H623.93H624.494V685H623.93Z" fill="#1EFF00" mask="url(#path-3-outside-1_193_86)"/>
</g>
<path d="M89 649H79V599H149V629H89V649ZM89 619H139V609H89V619ZM183.98 649H173.98V599H243.98V629H233.98L243.98 649H232.78L222.78 629H183.98V649ZM183.98 619H233.98V609H183.98V619ZM268.961 599H278.961V649H268.961V599ZM313.98 619V649H303.98V599H313.98L338.98 636.5L363.98 599H373.98V649H363.98V619L343.98 649H333.98L313.98 619ZM468.961 629H408.961V639H468.961V649H398.961V599H468.961V609H408.961V619H468.961V629ZM528.941 630.3L503.941 649H493.941V644L520.541 624L493.941 604V599H503.941L528.941 617.8L553.941 599H563.941V604L537.241 624L563.941 644V649H553.941L528.941 630.3ZM588.922 599H598.922V649H588.922V599ZM633.941 649H623.941V599H693.941V649H683.941V629H633.941V649ZM633.941 619H683.941V609H633.941V619Z" fill="url(#paint5_linear_193_86)"/>
<defs>
<filter id="filter0_d_193_86" x="239" y="38" width="322.452" height="544.318" filterUnits="userSpaceOnUse" color-interpolation-filters="sRGB">
<feFlood flood-opacity="0" result="BackgroundImageFix"/>
<feColorMatrix in="SourceAlpha" type="matrix" values="0 0 0 0 0 0 0 0 0 0 0 0 0 0 0 0 0 0 127 0" result="hardAlpha"/>
<feOffset dy="4"/>
<feGaussianBlur stdDeviation="2"/>
<feComposite in2="hardAlpha" operator="out"/>
<feColorMatrix type="matrix" values="0 0 0 0 0 0 0 0 0 0 0 0 0 0 0 0 0 0 0.25 0"/>
<feBlend mode="normal" in2="BackgroundImageFix" result="effect1_dropShadow_193_86"/>
<feBlend mode="normal" in="SourceGraphic" in2="effect1_dropShadow_193_86" result="shape"/>
</filter>
<filter id="filter1_d_193_86" x="472.316" y="239.22" width="193.176" height="206.395" filterUnits="userSpaceOnUse" color-interpolation-filters="sRGB">
<feFlood flood-opacity="0" result="BackgroundImageFix"/>
<feColorMatrix in="SourceAlpha" type="matrix" values="0 0 0 0 0 0 0 0 0 0 0 0 0 0 0 0 0 0 127 0" result="hardAlpha"/>
<feMorphology radius="20" operator="dilate" in="SourceAlpha" result="effect1_dropShadow_193_86"/>
<feOffset dx="7" dy="3"/>
<feGaussianBlur stdDeviation="12.15"/>
<feComposite in2="hardAlpha" operator="out"/>
<feColorMatrix type="matrix" values="0 0 0 0 0.0745098 0 0 0 0 0.807843 0 0 0 0 0.439216 0 0 0 1 0"/>
<feBlend mode="normal" in2="BackgroundImageFix" result="effect1_dropShadow_193_86"/>
<feBlend mode="normal" in="SourceGraphic" in2="effect1_dropShadow_193_86" result="shape"/>
</filter>
<filter id="filter2_d_193_86" x="133.636" y="633.636" width="542.659" height="116.729" filterUnits="userSpaceOnUse" color-interpolation-filters="sRGB">
<feFlood flood-opacity="0" result="BackgroundImageFix"/>
<feColorMatrix in="SourceAlpha" type="matrix" values="0 0 0 0 0 0 0 0 0 0 0 0 0 0 0 0 0 0 127 0" result="hardAlpha"/>
<feOffset dx="9" dy="4"/>
<feGaussianBlur stdDeviation="21.4"/>
<feComposite in2="hardAlpha" operator="out"/>
<feColorMatrix type="matrix" values="0 0 0 0 0.110516 0 0 0 0 0.701923 0 0 0 0 0 0 0 0 1 0"/>
<feBlend mode="normal" in2="BackgroundImageFix" result="effect1_dropShadow_193_86"/>
<feBlend mode="normal" in="SourceGraphic" in2="effect1_dropShadow_193_86" result="shape"/>
</filter>
<linearGradient id="paint0_linear_193_86" x1="400.278" y1="185.183" x2="400.226" y2="574.318" gradientUnits="userSpaceOnUse">
<stop stop-color="white"/>
<stop offset="1" stop-color="#13CE70"/>
</linearGradient>
<linearGradient id="paint1_linear_193_86" x1="400.278" y1="185.183" x2="400.226" y2="574.318" gradientUnits="userSpaceOnUse">
<stop stop-color="white"/>
<stop offset="1" stop-color="#13CE70"/>
</linearGradient>
<linearGradient id="paint2_linear_193_86" x1="400.278" y1="185.183" x2="400.226" y2="574.318" gradientUnits="userSpaceOnUse">
<stop stop-color="white"/>
<stop offset="1" stop-color="#13CE70"/>
</linearGradient>
<linearGradient id="paint3_linear_193_86" x1="400.278" y1="185.183" x2="400.226" y2="574.318" gradientUnits="userSpaceOnUse">
<stop stop-color="white"/>
<stop offset="1" stop-color="#13CE70"/>
</linearGradient>
<linearGradient id="paint4_linear_193_86" x1="400.278" y1="185.183" x2="400.226" y2="574.318" gradientUnits="userSpaceOnUse">
<stop stop-color="white"/>
<stop offset="1" stop-color="#13CE70"/>
</linearGradient>
<linearGradient id="paint5_linear_193_86" x1="79" y1="616" x2="706" y2="616" gradientUnits="userSpaceOnUse">
<stop stop-color="white"/>
<stop offset="1" stop-color="#13CE70" stop-opacity="0.941176"/>
</linearGradient>
</defs>
</svg>
